<svg xmlns="http://www.w3.org/2000/svg" width="512" height="512">
  <path d="M0 512h512V0H0v512M129 39c-6 15-21 27-29 41 0 7 11 11 16 17 7 5 13 12 20 16 6-8 15-13 21-21 8-6 13-17 22-21 15 21 31 42 42 65-8 6-14 14-21 21s-19 14-14 26c4 10 4 23 11 31l37 1c19-4 8 20 11 31v43c-12 2-25 1-37 2-14-4-16 11-18 21l-7 32 22 20c12 6 10 16 2 25-11 17-23 33-36 49-16-11-30-28-45-41-13 5-21 19-32 27 9 17 25 30 32 48-22 6-45 6-67 9-17 4-7-17-10-27l2-151c-5-30 40-7 43-34 8-18 2-49-23-47-14 3-18-12-16-23L54 18c26 5 50 14 75 21m238 445c-21 2-30-17-33-34-14-5-33-3-48-2-6 12-9 25-14 39h-26c15-48 33-92 41-142 5-11 20 3 26 9 20 42 37 87 54 130m116-134c-4 6-6 14-8 21-2-3-9-4-12-2 6 3 6 11 9 17-5 3-11 3-15 6-7-13-19-26-36-24-8 6-8 16-3 24 18 9 39 10 56 22s17 41 3 56c-30 27-91 17-106-21 28 6 62 22 88 5 7-33-37-26-54-40-25-10-21-50 0-62 22-14 54-12 78-2Z" fill="none" stroke="#FFF" stroke-width=".3"/>
  <path d="M129 39c-25-7-49-16-75-21l1 181c-2 11 2 26 16 23 25-2 31 29 23 47-3 27-48 4-43 34l-2 151c3 10-7 31 10 27 22-3 45-3 67-9-7-18-23-31-32-48 11-8 19-22 32-27 15 13 29 30 45 41 13-16 25-32 36-49 8-9 10-19-2-25l-22-20 7-32c2-10 4-25 18-21 12-1 25 0 37-2v-43c-3-11 8-35-11-31l-37-1c-7-8-7-21-11-31-5-12 7-19 14-26s13-15 21-21c-11-23-27-44-42-65-9 4-14 15-22 21-6 8-15 13-21 21-7-4-13-11-20-16-5-6-16-10-16-17 8-14 23-26 29-41m-34 79c4-5 3-13 3-20 10 2 16 13 24 20 11 7 8 22 12 32 2-8 5-17 6-26 7-1 11-8 16-12 11-5 6 13 7 19 2 8 0 18 2 26 6-4 2-15 3-22 2-8 1-14 2-22 0-10 11-1 17-2 9 0 6 12 8 18-1 14 8 3 5-5 11-2 13 13 6 19-19 16-40 37-34 65 6 15 4-10 7-15 6 9 1 22 4 32 7-5 5 2 7 8 1 6-2 15 4 18 4-8 0-17 4-25h28c24-8 13 25 15 39-11 3-22-2-32-5-12-3-20 10-32 8-12 2-19-9-31-8-11 4-23 4-35 5-12-2-3-21-9-30-6-20-37-18-40-39-3-38 1-75-2-113 1-12-2-24 1-36 13-10 15 7 16 16 3-7 1-27 14-17 2 11 24 2 15 14-17 13-14 39-11 58Z" fill="none" stroke="#000" stroke-width=".3"/>
  <path d="M95 118c-3-19-6-45 11-58 9-12-13-3-15-14-13-10-11 10-14 17-1-9-3-26-16-16-3 12 0 24-1 36 3 38-1 75 2 113 3 21 34 19 40 39 6 9-3 28 9 30 12-1 24-1 35-5 12-1 19 10 31 8 12 2 20-11 32-8 10 3 21 8 32 5-2-14 9-47-15-39h-28c-4 8 0 17-4 25-6-3-3-12-4-18-2-6 0-13-7-8-3-10 2-23-4-32-3 5-1 30-7 15-6-28 15-49 34-65 7-6 5-21-6-19 3 8-6 19-5 5-2-6 1-18-8-18-6 1-17-8-17 2-1 8 0 14-2 22-1 7 3 18-3 22-2-8 0-18-2-26-1-6 4-24-7-19-5 4-9 11-16 12-1 9-4 18-6 26-4-10-1-25-12-32-8-7-14-18-24-20 0 7 1 15-3 20Z" fill="none" stroke="#FFF" stroke-width=".3"/>
  <path d="M367 484c-17-43-34-88-54-130-6-6-21-20-26-9-8 50-26 94-41 142h26c5-14 8-27 14-39 15-1 34-3 48 2 3 17 12 36 33 34m-63-97c3 12 10 24 15 35h-29c2-6 2-13 6-18 3-5 2-15 8-17Zm179-37c-24-10-56-12-78 2-21 12-25 52 0 62 17 14 61 7 54 40-26 17-60 1-88-5 15 38 76 48 106 21 14-15 14-44-3-56s-38-13-56-22c-5-8-5-18 3-24 17-2 29 11 36 24 4-3 10-3 15-6-3-6-3-14-9-17 3-2 10-1 12 2 2-7 4-15 8-21Z" fill="none" stroke="#000" stroke-width=".3"/>
  <path d="M304 387c-6 2-5 12-8 17-4 5-4 12-6 18h29c-5-11-12-23-15-35Z" fill="none" stroke="#FFF" stroke-width=".3"/>
  <path d="M0 512h512V0H0v512M129 39c-6 15-21 27-29 41 0 7 11 11 16 17 7 5 13 12 20 16 6-8 15-13 21-21 8-6 13-17 22-21 15 21 31 42 42 65-8 6-14 14-21 21s-19 14-14 26c4 10 4 23 11 31l37 1c19-4 8 20 11 31v43c-12 2-25 1-37 2-14-4-16 11-18 21l-7 32 22 20c12 6 10 16 2 25-11 17-23 33-36 49-16-11-30-28-45-41-13 5-21 19-32 27 9 17 25 30 32 48-22 6-45 6-67 9-17 4-7-17-10-27l2-151c-5-30 40-7 43-34 8-18 2-49-23-47-14 3-18-12-16-23L54 18c26 5 50 14 75 21m238 445c-21 2-30-17-33-34-14-5-33-3-48-2-6 12-9 25-14 39h-26c15-48 33-92 41-142 5-11 20 3 26 9 20 42 37 87 54 130m116-134c-4 6-6 14-8 21-2-3-9-4-12-2 6 3 6 11 9 17-5 3-11 3-15 6-7-13-19-26-36-24-8 6-8 16-3 24 18 9 39 10 56 22s17 41 3 56c-30 27-91 17-106-21 28 6 62 22 88 5 7-33-37-26-54-40-25-10-21-50 0-62 22-14 54-12 78-2Z" fill="#FFF" stroke="None"/>
  <path d="M129 39c-25-7-49-16-75-21l1 181c-2 11 2 26 16 23 25-2 31 29 23 47-3 27-48 4-43 34l-2 151c3 10-7 31 10 27 22-3 45-3 67-9-7-18-23-31-32-48 11-8 19-22 32-27 15 13 29 30 45 41 13-16 25-32 36-49 8-9 10-19-2-25l-22-20 7-32c2-10 4-25 18-21 12-1 25 0 37-2v-43c-3-11 8-35-11-31l-37-1c-7-8-7-21-11-31-5-12 7-19 14-26s13-15 21-21c-11-23-27-44-42-65-9 4-14 15-22 21-6 8-15 13-21 21-7-4-13-11-20-16-5-6-16-10-16-17 8-14 23-26 29-41m-34 79c4-5 3-13 3-20 10 2 16 13 24 20 11 7 8 22 12 32 2-8 5-17 6-26 7-1 11-8 16-12 11-5 6 13 7 19 2 8 0 18 2 26 6-4 2-15 3-22 2-8 1-14 2-22 0-10 11-1 17-2 9 0 6 12 8 18-1 14 8 3 5-5 11-2 13 13 6 19-19 16-40 37-34 65 6 15 4-10 7-15 6 9 1 22 4 32 7-5 5 2 7 8 1 6-2 15 4 18 4-8 0-17 4-25h28c24-8 13 25 15 39-11 3-22-2-32-5-12-3-20 10-32 8-12 2-19-9-31-8-11 4-23 4-35 5-12-2-3-21-9-30-6-20-37-18-40-39-3-38 1-75-2-113 1-12-2-24 1-36 13-10 15 7 16 16 3-7 1-27 14-17 2 11 24 2 15 14-17 13-14 39-11 58Z" stroke="None"/>
  <path d="M95 118c-3-19-6-45 11-58 9-12-13-3-15-14-13-10-11 10-14 17-1-9-3-26-16-16-3 12 0 24-1 36 3 38-1 75 2 113 3 21 34 19 40 39 6 9-3 28 9 30 12-1 24-1 35-5 12-1 19 10 31 8 12 2 20-11 32-8 10 3 21 8 32 5-2-14 9-47-15-39h-28c-4 8 0 17-4 25-6-3-3-12-4-18-2-6 0-13-7-8-3-10 2-23-4-32-3 5-1 30-7 15-6-28 15-49 34-65 7-6 5-21-6-19 3 8-6 19-5 5-2-6 1-18-8-18-6 1-17-8-17 2-1 8 0 14-2 22-1 7 3 18-3 22-2-8 0-18-2-26-1-6 4-24-7-19-5 4-9 11-16 12-1 9-4 18-6 26-4-10-1-25-12-32-8-7-14-18-24-20 0 7 1 15-3 20Z" fill="#FFF" stroke="None"/>
  <path d="M367 484c-17-43-34-88-54-130-6-6-21-20-26-9-8 50-26 94-41 142h26c5-14 8-27 14-39 15-1 34-3 48 2 3 17 12 36 33 34m-63-97c3 12 10 24 15 35h-29c2-6 2-13 6-18 3-5 2-15 8-17Zm179-37c-24-10-56-12-78 2-21 12-25 52 0 62 17 14 61 7 54 40-26 17-60 1-88-5 15 38 76 48 106 21 14-15 14-44-3-56s-38-13-56-22c-5-8-5-18 3-24 17-2 29 11 36 24 4-3 10-3 15-6-3-6-3-14-9-17 3-2 10-1 12 2 2-7 4-15 8-21Z" stroke="None"/>
  <path d="M304 387c-6 2-5 12-8 17-4 5-4 12-6 18h29c-5-11-12-23-15-35Z" fill="#FFF" stroke="None"/>
</svg>
